<?xml version="1.0" encoding="utf-8"?>
<!-- Generator: Adobe Illustrator 15.1.0, SVG Export Plug-In  -->
<!DOCTYPE svg PUBLIC "-//W3C//DTD SVG 1.1//EN" "http://www.w3.org/Graphics/SVG/1.1/DTD/svg11.dtd" [
	<!ENTITY ns_flows "http://ns.adobe.com/Flows/1.0/">
]>
<svg version="1.1"
	 xmlns="http://www.w3.org/2000/svg" xmlns:xlink="http://www.w3.org/1999/xlink" xmlns:a="http://ns.adobe.com/AdobeSVGViewerExtensions/3.0/"
	 x="0px" y="0px" width="1024px" height="768px" viewBox="-0.003 -49.364 1024 768"
	 enable-background="new -0.003 -49.364 1024 768" xml:space="preserve">
<defs>
</defs>
<g>
	<defs>
		<rect id="SVGID_1_" x="13.224" y="0.924" width="549.37" height="567.371"/>
	</defs>
	<clipPath id="SVGID_3_">
		<use xlink:href="#SVGID_1_"  overflow="visible"/>
	</clipPath>
	<g clip-path="url(#SVGID_3_)">
		<defs>
			<rect id="SVGID_2_" x="12.285" width="551.248" height="569.217"/>
		</defs>
		<clipPath id="SVGID_4_">
			<use xlink:href="#SVGID_2_"  overflow="visible"/>
		</clipPath>
		<g id="XMLID_1_" clip-path="url(#SVGID_4_)">
			<g>
				<path fill="#E90000" d="M25.432,196.816C8.469,161.791,10.122,109.976,35.76,87.792c20.37-17.633,48.411-21.144,78.877-27.718
					c16.291-21.811,41.466-35.966,72.318-45.285c30.444-9.199,61.594-14.888,101.418-12.94
					c79.957,3.927,143.732,37.946,189.696,83.166c22.706,22.347,42.381,49.333,56.347,79.468
					c17.35,37.432,30.157,81.973,27.236,133.997c-4.332,77.007-38.215,141.096-83.583,185.725
					c-47.617,46.86-108.461,78.32-187.823,83.166c-58.54,3.588-110.302-11.891-151.184-33.265
					c-40.32-21.067-70.07-47.342-97.67-85.014c31.733,35.572,68.615,61.059,118.326,77.619
					c50.792,16.934,115.934,16.791,168.092-1.849c85.049-30.376,164.069-110.468,170.914-219
					C505.978,190.986,448,110.96,377.588,67.458c-60.624-37.454-183.832-58.237-248.865-6.465
					c0.397,3.172,10.725,23.802,15.972,24.021c1.62,0.077,20.05-16.364,23.478-18.475c36.242-22.358,87.144-4.146,121.137,12.94
					c-17.768,3.216-36.462-9.703-55.398-11.092c3.736,7.974,3.152,29.184-6.581,30.497c-5.743-58.838-97.438-21.155-19.719,9.232
					c-11.32,1.586-55.134-7.405-67.612-12.929c-14.296-6.333-45.622-5.064-53.536-5.546c-10.009-0.612-24.558,7.044-32.858,12.011
					c-21.461,12.831-32.781,43.59-30.059,74.852c7.595-34.795,142.311-1.564,159.969-0.897
					c64.934,1.4,105.265,146.631,15.641,154.288c-1.885,0.164,9.148-2.734,14.098-16.845
					c22.232-63.433-35.25-140.724-142.752-146.718C44.7,165.893,24.65,171.1,25.432,196.816z"/>
			</g>
			<g>
			</g>
		</g>
	</g>
</g>
<path fill="#B1B3B5" d="M203.997,75.212c-0.812,4.713-7.864,5.771-17.724,5.193c-1.518-0.836-1.061-2.842-3.536-3.126
	C180.094,67.816,202.312,68.579,203.997,75.212z"/>
<text transform="matrix(1.0243 0 0 1 0 434.0366)" fill="#B1B3B5" font-family="'ArialRoundedMTBold'" font-size="186.7752">redis</text>
<text transform="matrix(0.8675 0 0 1 533.5225 563.9741)" fill="#E90000" stroke="#E90000" stroke-miterlimit="10" font-family="'ArialRoundedMTBold'" font-size="219.5708">hawk</text>
</svg>
